<?xml version="1.0" encoding="UTF-8"?>
<svg width="340px" height="340px" viewBox="0 0 340 340" version="1.1" xmlns="http://www.w3.org/2000/svg"
    xmlns:xlink="http://www.w3.org/1999/xlink">
    <title>circle</title>
    <g id="circle" stroke="none" stroke-width="1" fill="none" fill-rule="evenodd">
        <path
            d="M316.938061,230.85929 L326.17539,234.689661 C317.673096,255.193808 305.185376,273.816716 289.501046,289.501046 C281.999581,297.002511 273.810149,303.787875 265.04567,309.759521 L263.899225,310.533809 L258.336227,302.223992 C266.991292,296.429867 275.06299,289.796967 282.429978,282.429978 C297.190094,267.669862 308.940186,250.146977 316.938061,230.85929 Z M23.0619392,230.85929 C30.9169947,249.802554 42.3914562,267.043482 56.782185,281.63662 L57.5700218,282.429978 L50.498954,289.501046 C35.0850434,274.087135 22.7584657,255.835104 14.2679337,235.748537 L13.8246097,234.689661 L23.0619392,230.85929 Z M13.8246097,105.310339 L23.0619392,109.14071 C15.2748952,127.919958 11.1488285,148.103837 11.0039521,168.8669 L11,170 L1,170 C1,147.517952 5.3946624,125.640013 13.8246097,105.310339 Z M326.17539,105.310339 C334.459994,125.289501 338.84726,146.764001 338.996083,168.837679 L339,170 L329,170 C329,149.216149 325.012988,128.996473 317.359176,110.166421 L316.938061,109.14071 L326.17539,105.310339 Z M170,1 C214.973174,1 257.163147,18.6546334 288.553148,49.5584246 L289.501046,50.498954 L282.429978,57.5700218 C252.800891,27.9409346 212.748023,11 170,11 C127.679457,11 88.0004359,27.60381 58.4620138,56.6849599 L57.5700218,57.5700218 L50.498954,50.498954 C81.984814,19.0130939 124.572551,1 170,1 Z"
            id="circle-1" fill-opacity="0.15" fill="#C8C8C8" fill-rule="nonzero">
            <animateTransform attributeName="transform" attributeType="XML" type="rotate" from="0 170 170"
                to="360 170 170" dur="10s" repeatCount="indefinite" />
        </path>
        <path
            d="M316.938061,230.85929 L326.17539,234.689661 C317.673096,255.193808 305.185376,273.816716 289.501046,289.501046 C281.999581,297.002511 273.810149,303.787875 265.04567,309.759521 L263.899225,310.533809 L258.336227,302.223992 C266.991292,296.429867 275.06299,289.796967 282.429978,282.429978 C297.190094,267.669862 308.940186,250.146977 316.938061,230.85929 Z M23.0619392,230.85929 C30.9169947,249.802554 42.3914562,267.043482 56.782185,281.63662 L57.5700218,282.429978 L50.498954,289.501046 C35.0850434,274.087135 22.7584657,255.835104 14.2679337,235.748537 L13.8246097,234.689661 L23.0619392,230.85929 Z M13.8246097,105.310339 L23.0619392,109.14071 C15.2748952,127.919958 11.1488285,148.103837 11.0039521,168.8669 L11,170 L1,170 C1,147.517952 5.3946624,125.640013 13.8246097,105.310339 Z M326.17539,105.310339 C334.459994,125.289501 338.84726,146.764001 338.996083,168.837679 L339,170 L329,170 C329,149.216149 325.012988,128.996473 317.359176,110.166421 L316.938061,109.14071 L326.17539,105.310339 Z M170,1 C214.973174,1 257.163147,18.6546334 288.553148,49.5584246 L289.501046,50.498954 L282.429978,57.5700218 C252.800891,27.9409346 212.748023,11 170,11 C127.679457,11 88.0004359,27.60381 58.4620138,56.6849599 L57.5700218,57.5700218 L50.498954,50.498954 C81.984814,19.0130939 124.572551,1 170,1 Z"
            id="circle-2" fill="#3D85F9" fill-rule="nonzero">
            <animateTransform attributeName="transform" attributeType="XML" type="rotate" from="0 170 170"
                to="-360 170 170" dur="10s" repeatCount="indefinite" />
        </path>
        <path
            d="M322.699585,160.333565 C322.898869,163.530104 323,166.753242 323,170 C323,229.819301 288.670536,281.620526 238.638081,306.777203 L235.954852,301.409136 C284.02066,277.23741 317,227.470074 317,170 C317,166.873905 316.90242,163.770601 316.710138,160.692968 L322.699585,160.333565 Z M17.3004147,160.333565 L23.2898615,160.692968 C23.0975804,163.770601 23,166.873905 23,170 C23,227.469674 55.9788814,277.236718 104.044145,301.408632 L101.360917,306.776699 C51.3290052,281.619834 17,229.818901 17,170 C17,167.294368 17.0702298,164.60514 17.208966,161.934038 L17.3004147,160.333565 Z M170,17 C201.057334,17 229.953365,26.2536424 254.081343,42.1541786 L250.774157,47.1612306 C227.594365,31.8882289 199.835161,23 170,23 C140.164411,23 112.404839,31.8884838 89.2248465,47.1618875 L85.9186573,42.1541786 C110.046635,26.2536424 138.942666,17 170,17 Z"
            id="circle-3" fill="#3D85F9" fill-rule="nonzero">
            <animateTransform attributeName="transform" attributeType="XML" type="rotate" from="0 170 170"
                to="360 170 170" dur="14s" repeatCount="indefinite" />
        </path>
        <path
            d="M159.897832,299.607663 L163.888088,299.886689 L162.771985,315.847714 L158.781728,315.568688 L159.897832,299.607663 Z M151.693876,298.727721 L155.664061,299.215198 L153.714151,315.095937 L149.743967,314.608459 L151.693876,298.727721 Z M143.704596,297.321005 L147.631105,298.084241 L144.578161,313.790276 L140.651652,313.02704 L143.704596,297.321005 Z M135.675579,295.418267 L139.556762,296.385954 L135.686012,311.910686 L131.804829,310.942998 L135.675579,295.418267 Z M127.925678,293.019313 L131.729904,294.255381 L126.785632,309.472285 L122.981406,308.236217 L127.925678,293.019313 Z M120.341297,290.142471 L124.050032,291.640897 L118.056327,306.475839 L114.347591,304.977413 L120.341297,290.142471 Z M112.810788,286.770434 L116.436019,288.460907 L109.674127,302.961832 L106.048896,301.271359 L112.810788,286.770434 Z M105.647231,282.963745 L109.145709,284.902983 L101.388755,298.896899 L97.8902766,296.95766 L105.647231,282.963745 Z M98.5991602,278.67303 L101.991353,280.792707 L93.5126444,294.361477 L90.120452,292.2418 L98.5991602,278.67303 Z M91.9698832,273.996639 L95.2059512,276.34778 L85.8013872,289.292052 L82.5653192,286.940911 L91.9698832,273.996639 Z M85.6457014,268.916897 L88.7098792,271.488047 L78.4252774,283.744758 L75.3610997,281.173608 L85.6457014,268.916897 Z M79.5257789,263.382844 L82.4511937,266.110838 L71.5392199,277.812497 L68.6138051,275.084503 L79.5257789,263.382844 Z M73.8891623,257.548806 L76.6171557,260.474221 L64.9154965,271.386195 L62.1875031,268.46078 L73.8891623,257.548806 Z M68.5119528,251.290121 L71.0831033,254.354299 L58.8263922,264.6389 L56.2552417,261.574723 L68.5119528,251.290121 Z M63.6522202,244.794049 L66.0033612,248.030117 L53.0590893,257.434681 L50.7079483,254.198613 L63.6522202,244.794049 Z M59.2072925,238.008647 L61.3269696,241.40084 L47.7582,249.879548 L45.638523,246.487356 L59.2072925,238.008647 Z M55.0970166,230.854291 L57.0362551,234.352769 L43.0423397,242.109723 L41.1031013,238.611245 L55.0970166,230.854291 Z M246.487356,45.638523 L249.879548,47.7582 L241.40084,61.3269696 L238.008647,59.2072925 L246.487356,45.638523 Z M93.5126444,45.638523 L101.991353,59.2072925 L98.5991602,61.3269696 L90.120452,47.7582 L93.5126444,45.638523 Z M238.611245,41.1031013 L242.109723,43.0423397 L234.352769,57.0362551 L230.854291,55.0970166 L238.611245,41.1031013 Z M101.388755,41.1031013 L109.145709,55.0970166 L105.647231,57.0362551 L97.8902766,43.0423397 L101.388755,41.1031013 Z M230.325873,37.0381679 L233.951104,38.728641 L227.189212,53.2295656 L223.563981,51.5390925 L230.325873,37.0381679 Z M109.674127,37.0381679 L116.436019,51.5390925 L112.810788,53.2295656 L106.048896,38.728641 L109.674127,37.0381679 Z M221.943673,33.5241609 L225.652409,35.0225873 L219.658703,49.857529 L215.949968,48.3591026 L221.943673,33.5241609 Z M118.056327,33.5241609 L124.050032,48.3591026 L120.341297,49.857529 L114.347591,35.0225873 L118.056327,33.5241609 Z M213.214368,30.5277146 L217.018594,31.7637826 L212.074322,46.9806869 L208.270096,45.7446189 L213.214368,30.5277146 Z M126.785632,30.5277146 L131.729904,45.7446189 L127.925678,46.9806869 L122.981406,31.7637826 L126.785632,30.5277146 Z M204.313988,28.0893142 L208.195171,29.0570017 L204.324421,44.5817334 L200.443238,43.6140458 L204.313988,28.0893142 Z M135.686012,28.0893142 L139.556762,43.6140458 L135.675579,44.5817334 L131.804829,29.0570017 L135.686012,28.0893142 Z M195.421839,26.2097239 L199.348348,26.9729599 L196.295404,42.6789949 L192.368895,41.9157589 L195.421839,26.2097239 Z M144.578161,26.2097239 L147.631105,41.9157589 L143.704596,42.6789949 L140.651652,26.9729599 L144.578161,26.2097239 Z M186.285849,24.9040633 L190.256033,25.3915407 L188.306124,41.2722791 L184.335939,40.7848017 L186.285849,24.9040633 Z M153.714151,24.9040633 L155.664061,40.7848017 L151.693876,41.2722791 L149.743967,25.3915407 L153.714151,24.9040633 Z M177.228015,24.1522861 L181.218272,24.431312 L180.102168,40.3923368 L176.111912,40.1133109 L177.228015,24.1522861 Z M162.771985,24.1522861 L163.888088,40.1133109 L159.897832,40.3923368 L158.781728,24.431312 L162.771985,24.1522861 Z M172,24 L172,40 L168,40 L168,24 L172,24 Z"
            id="形状结合" fill="#26C7FF"></path>
        <path
            d="M172,279 L172,291 L168,291 L168,279 L172,279 Z M178.797499,278.648177 L179.634577,290.618945 L175.64432,290.897971 L174.807243,278.927202 L178.797499,278.648177 Z M161.202501,278.648177 L165.192757,278.927202 L164.35568,290.897971 L160.365423,290.618945 L161.202501,278.648177 Z M185.667198,277.894175 L187.12963,289.804729 L183.159446,290.292206 L181.697013,278.381652 L185.667198,277.894175 Z M154.332802,277.894175 L158.302987,278.381652 L156.840554,290.292206 L152.87037,289.804729 L154.332802,277.894175 Z M192.367252,276.691653 L194.65696,288.471179 L190.730451,289.234415 L188.440743,277.454889 L192.367252,276.691653 Z M147.632748,276.691653 L151.559257,277.454889 L149.269549,289.234415 L145.34304,288.471179 L147.632748,276.691653 Z M199.088397,275.081445 L201.99146,286.724994 L198.110277,287.692682 L195.207214,276.049133 L199.088397,275.081445 Z M140.911603,275.081445 L144.792786,276.049133 L141.889723,287.692682 L138.00854,286.724994 L140.911603,275.081445 Z M205.584965,273.047126 L209.293169,284.459804 L205.488943,285.695872 L201.780739,274.283194 L205.584965,273.047126 Z M134.415035,273.047126 L138.219261,274.283194 L134.511057,285.695872 L130.706831,284.459804 L134.415035,273.047126 Z M211.941052,270.61198 L216.436331,281.738186 L212.727595,283.236612 L208.232316,272.110406 L211.941052,270.61198 Z M128.058948,270.61198 L131.767684,272.110406 L127.272405,283.236612 L123.563669,281.738186 L128.058948,270.61198 Z M218.241525,267.772028 L223.312944,278.647721 L219.687713,280.338194 L214.616293,269.462501 L218.241525,267.772028 Z M121.758475,267.772028 L125.383707,269.462501 L120.312287,280.338194 L116.687056,278.647721 L121.758475,267.772028 Z M224.242054,264.557931 L230.05977,275.053367 L226.561291,276.992606 L220.743575,266.497169 L224.242054,264.557931 Z M115.757946,264.557931 L119.256425,266.497169 L113.438709,276.992606 L109.94023,275.053367 L115.757946,264.557931 Z M230.136662,260.949584 L236.495693,271.126161 L233.103501,273.245839 L226.74447,263.069261 L230.136662,260.949584 Z M109.863338,260.949584 L113.25553,263.069261 L106.896499,273.245839 L103.504307,271.126161 L109.863338,260.949584 Z M235.686626,257.007282 L242.74005,266.715486 L239.503982,269.066627 L232.450559,259.358423 L235.686626,257.007282 Z M104.313374,257.007282 L107.549441,259.358423 L100.496018,269.066627 L97.2599505,266.715486 L104.313374,257.007282 Z M240.979122,252.727181 L248.692573,261.919714 L245.628396,264.490865 L237.914944,255.298331 L240.979122,252.727181 Z M99.020878,252.727181 L102.085056,255.298331 L94.3716044,264.490865 L91.3074266,261.919714 L99.020878,252.727181 Z M246.093634,248.079273 L254.277615,256.855518 L251.3522,259.583511 L243.16822,250.807267 L246.093634,248.079273 Z M93.9063656,248.079273 L96.8317804,250.807267 L88.6478001,259.583511 L85.7223853,256.855518 L93.9063656,248.079273 Z M250.807267,243.16822 L259.583511,251.3522 L256.855518,254.277615 L248.079273,246.093634 L250.807267,243.16822 Z M89.1927333,243.16822 L91.9207268,246.093634 L83.1444824,254.277615 L80.4164889,251.3522 L89.1927333,243.16822 Z M255.298331,237.914944 L264.490865,245.628396 L261.919714,248.692573 L252.727181,240.979122 L255.298331,237.914944 Z M84.7016685,237.914944 L87.272819,240.979122 L78.0802856,248.692573 L75.5091352,245.628396 L84.7016685,237.914944 Z M259.358423,232.450559 L269.066627,239.503982 L266.715486,242.74005 L257.007282,235.686626 L259.358423,232.450559 Z M80.6415771,232.450559 L82.9927181,235.686626 L73.2845142,242.74005 L70.9333732,239.503982 L80.6415771,232.450559 Z M263.069261,226.74447 L273.245839,233.103501 L271.126161,236.495693 L260.949584,230.136662 L263.069261,226.74447 Z M76.9307386,226.74447 L79.0504157,230.136662 L68.8738385,236.495693 L66.7541615,233.103501 L76.9307386,226.74447 Z M266.497169,220.743575 L276.992606,226.561291 L275.053367,230.05977 L264.557931,224.242054 L266.497169,220.743575 Z M73.5028308,220.743575 L75.4420693,224.242054 L64.9466328,230.05977 L63.0073943,226.561291 L73.5028308,220.743575 Z M269.462501,214.616293 L280.338194,219.687713 L278.647721,223.312944 L267.772028,218.241525 L269.462501,214.616293 Z M70.5374992,214.616293 L72.2279722,218.241525 L61.3522788,223.312944 L59.6618057,219.687713 L70.5374992,214.616293 Z M272.110406,208.232316 L283.236612,212.727595 L281.738186,216.436331 L270.61198,211.941052 L272.110406,208.232316 Z M67.8895941,208.232316 L69.3880204,211.941052 L58.2618142,216.436331 L56.7633878,212.727595 L67.8895941,208.232316 Z M274.283194,201.780739 L285.695872,205.488943 L284.459804,209.293169 L273.047126,205.584965 L274.283194,201.780739 Z M65.7168057,201.780739 L66.9528737,205.584965 L55.5401955,209.293169 L54.3041275,205.488943 L65.7168057,201.780739 Z M276.049133,195.207214 L287.692682,198.110277 L286.724994,201.99146 L275.081445,199.088397 L276.049133,195.207214 Z M63.950867,195.207214 L64.9185546,199.088397 L53.2750059,201.99146 L52.3073183,198.110277 L63.950867,195.207214 Z M277.454889,188.440743 L289.234415,190.730451 L288.471179,194.65696 L276.691653,192.367252 L277.454889,188.440743 Z M62.5451113,188.440743 L63.3083473,192.367252 L51.5288211,194.65696 L50.7655851,190.730451 L62.5451113,188.440743 Z M278.381652,181.697013 L290.292206,183.159446 L289.804729,187.12963 L277.894175,185.667198 L278.381652,181.697013 Z M61.6183476,181.697013 L62.1058249,185.667198 L50.1952711,187.12963 L49.7077938,183.159446 L61.6183476,181.697013 Z M278.927202,174.807243 L290.897971,175.64432 L290.618945,179.634577 L278.648177,178.797499 L278.927202,174.807243 Z M61.0727976,174.807243 L61.3518235,178.797499 L49.3810549,179.634577 L49.102029,175.64432 L61.0727976,174.807243 Z M291,168 L291,172 L279,172 L279,168 L291,168 Z M61,168 L61,172 L49,172 L49,168 L61,168 Z M290.618945,160.365423 L290.897971,164.35568 L278.927202,165.192757 L278.648177,161.202501 L290.618945,160.365423 Z M49.3810549,160.365423 L61.3518235,161.202501 L61.0727976,165.192757 L49.102029,164.35568 L49.3810549,160.365423 Z M289.804729,152.87037 L290.292206,156.840554 L278.381652,158.302987 L277.894175,154.332802 L289.804729,152.87037 Z M50.1952711,152.87037 L62.1058249,154.332802 L61.6183476,158.302987 L49.7077938,156.840554 L50.1952711,152.87037 Z M288.471179,145.34304 L289.234415,149.269549 L277.454889,151.559257 L276.691653,147.632748 L288.471179,145.34304 Z M51.5288211,145.34304 L63.3083473,147.632748 L62.5451113,151.559257 L50.7655851,149.269549 L51.5288211,145.34304 Z M286.724994,138.00854 L287.692682,141.889723 L276.049133,144.792786 L275.081445,140.911603 L286.724994,138.00854 Z M53.2750059,138.00854 L64.9185546,140.911603 L63.950867,144.792786 L52.3073183,141.889723 L53.2750059,138.00854 Z M284.459804,130.706831 L285.695872,134.511057 L274.283194,138.219261 L273.047126,134.415035 L284.459804,130.706831 Z M55.5401955,130.706831 L66.9528737,134.415035 L65.7168057,138.219261 L54.3041275,134.511057 L55.5401955,130.706831 Z M281.738186,123.563669 L283.236612,127.272405 L272.110406,131.767684 L270.61198,128.058948 L281.738186,123.563669 Z M58.2618142,123.563669 L69.3880204,128.058948 L67.8895941,131.767684 L56.7633878,127.272405 L58.2618142,123.563669 Z M278.647721,116.687056 L280.338194,120.312287 L269.462501,125.383707 L267.772028,121.758475 L278.647721,116.687056 Z M61.3522788,116.687056 L72.2279722,121.758475 L70.5374992,125.383707 L59.6618057,120.312287 L61.3522788,116.687056 Z M275.053367,109.94023 L276.992606,113.438709 L266.497169,119.256425 L264.557931,115.757946 L275.053367,109.94023 Z M64.9466328,109.94023 L75.4420693,115.757946 L73.5028308,119.256425 L63.0073943,113.438709 L64.9466328,109.94023 Z M271.126161,103.504307 L273.245839,106.896499 L263.069261,113.25553 L260.949584,109.863338 L271.126161,103.504307 Z M68.8738385,103.504307 L79.0504157,109.863338 L76.9307386,113.25553 L66.7541615,106.896499 L68.8738385,103.504307 Z M266.715486,97.2599505 L269.066627,100.496018 L259.358423,107.549441 L257.007282,104.313374 L266.715486,97.2599505 Z M73.2845142,97.2599505 L82.9927181,104.313374 L80.6415771,107.549441 L70.9333732,100.496018 L73.2845142,97.2599505 Z M261.919714,91.3074266 L264.490865,94.3716044 L255.298331,102.085056 L252.727181,99.020878 L261.919714,91.3074266 Z M78.0802856,91.3074266 L87.272819,99.020878 L84.7016685,102.085056 L75.5091352,94.3716044 L78.0802856,91.3074266 Z M256.855518,85.7223853 L259.583511,88.6478001 L250.807267,96.8317804 L248.079273,93.9063656 L256.855518,85.7223853 Z M83.1444824,85.7223853 L91.9207268,93.9063656 L89.1927333,96.8317804 L80.4164889,88.6478001 L83.1444824,85.7223853 Z M251.3522,80.4164889 L254.277615,83.1444824 L246.093634,91.9207268 L243.16822,89.1927333 L251.3522,80.4164889 Z M88.6478001,80.4164889 L96.8317804,89.1927333 L93.9063656,91.9207268 L85.7223853,83.1444824 L88.6478001,80.4164889 Z M245.628396,75.5091352 L248.692573,78.0802856 L240.979122,87.272819 L237.914944,84.7016685 L245.628396,75.5091352 Z M94.3716044,75.5091352 L102.085056,84.7016685 L99.020878,87.272819 L91.3074266,78.0802856 L94.3716044,75.5091352 Z M239.503982,70.9333732 L242.74005,73.2845142 L235.686626,82.9927181 L232.450559,80.6415771 L239.503982,70.9333732 Z M100.496018,70.9333732 L107.549441,80.6415771 L104.313374,82.9927181 L97.2599505,73.2845142 L100.496018,70.9333732 Z M233.103501,66.7541615 L236.495693,68.8738385 L230.136662,79.0504157 L226.74447,76.9307386 L233.103501,66.7541615 Z M106.896499,66.7541615 L113.25553,76.9307386 L109.863338,79.0504157 L103.504307,68.8738385 L106.896499,66.7541615 Z M226.561291,63.0073943 L230.05977,64.9466328 L224.242054,75.4420693 L220.743575,73.5028308 L226.561291,63.0073943 Z M113.438709,63.0073943 L119.256425,73.5028308 L115.757946,75.4420693 L109.94023,64.9466328 L113.438709,63.0073943 Z M219.687713,59.6618057 L223.312944,61.3522788 L218.241525,72.2279722 L214.616293,70.5374992 L219.687713,59.6618057 Z M120.312287,59.6618057 L125.383707,70.5374992 L121.758475,72.2279722 L116.687056,61.3522788 L120.312287,59.6618057 Z M212.727595,56.7633878 L216.436331,58.2618142 L211.941052,69.3880204 L208.232316,67.8895941 L212.727595,56.7633878 Z M127.272405,56.7633878 L131.767684,67.8895941 L128.058948,69.3880204 L123.563669,58.2618142 L127.272405,56.7633878 Z M205.488943,54.3041275 L209.293169,55.5401955 L205.584965,66.9528737 L201.780739,65.7168057 L205.488943,54.3041275 Z M134.511057,54.3041275 L138.219261,65.7168057 L134.415035,66.9528737 L130.706831,55.5401955 L134.511057,54.3041275 Z M198.110277,52.3073183 L201.99146,53.2750059 L199.088397,64.9185546 L195.207214,63.950867 L198.110277,52.3073183 Z M141.889723,52.3073183 L144.792786,63.950867 L140.911603,64.9185546 L138.00854,53.2750059 L141.889723,52.3073183 Z M190.730451,50.7655851 L194.65696,51.5288211 L192.367252,63.3083473 L188.440743,62.5451113 L190.730451,50.7655851 Z M149.269549,50.7655851 L151.559257,62.5451113 L147.632748,63.3083473 L145.34304,51.5288211 L149.269549,50.7655851 Z M183.159446,49.7077938 L187.12963,50.1952711 L185.667198,62.1058249 L181.697013,61.6183476 L183.159446,49.7077938 Z M156.840554,49.7077938 L158.302987,61.6183476 L154.332802,62.1058249 L152.87037,50.1952711 L156.840554,49.7077938 Z M175.64432,49.102029 L179.634577,49.3810549 L178.797499,61.3518235 L174.807243,61.0727976 L175.64432,49.102029 Z M164.35568,49.102029 L165.192757,61.0727976 L161.202501,61.3518235 L160.365423,49.3810549 L164.35568,49.102029 Z M172,49 L172,61 L168,61 L168,49 L172,49 Z"
            id="形状结合" fill="#3D85F9" fill-rule="nonzero"></path>
        <path
            d="M242.831998,242.831998 L245.660426,245.660426 C235.729647,255.591204 223.938581,263.497785 210.957049,268.880735 C198.086325,274.217738 184.235396,277 170,277 C141.524839,277 114.814586,265.822956 94.9397448,246.255931 L94.3395744,245.660426 L97.1680015,242.831998 C116.360883,262.02488 142.308981,273 170,273 C183.707273,273 197.037771,270.322278 209.424901,265.185804 C221.919848,260.004621 233.270906,252.393091 242.831998,242.831998 Z M94.3395744,94.3395744 L97.1680015,97.1680015 C78.1670488,116.168954 67.2203242,141.790695 67.0032898,169.169797 L67,170 L63,170 C63,141.237211 74.4039837,114.275165 94.3395744,94.3395744 Z M245.660426,94.3395744 C265.39666,114.075809 276.771067,140.698673 276.996582,169.137662 L277,170 L273,170 C273,142.585891 262.243285,116.880019 243.405317,97.7458095 L242.831998,97.1680015 L245.660426,94.3395744 Z M170,63 C183.911864,63 197.456539,65.6572326 210.077988,70.7593396 L210.957049,71.1192647 L209.424901,74.8141965 C197.325844,69.7971749 184.326786,67.125875 170.955703,67.0043418 L170,67 L170,63 Z"
            id="circle-4" fill-opacity="0.15" fill="#C8C8C8" fill-rule="nonzero">
            <animateTransform attributeName="transform" attributeType="XML" type="rotate" from="0 170 170"
                to="-360 170 170" dur="10s" repeatCount="indefinite" />
        </path>
        <path
            d="M103.885516,236.114484 C121.135036,253.364004 144.391084,263.300019 169.246326,263.497014 L170,263.5 L170,270.5 C143.256059,270.5 118.165968,260.000904 99.4994495,241.62353 L98.9357685,241.064232 L103.885516,236.114484 Z M270.5,170 C270.5,183.36896 267.886535,196.379568 262.873324,208.469435 C257.934739,220.379335 250.735211,231.221672 241.711853,240.410693 L241.064232,241.064232 L236.114484,236.114484 C244.794397,227.434571 251.704117,217.130121 256.407193,205.788176 C260.952923,194.825687 263.377079,183.049201 263.495446,170.932701 L263.5,170 L270.5,170 Z M77.1266763,131.530565 L83.5928069,134.211824 C79.0470773,145.174313 76.6229209,156.950799 76.5045541,169.067299 L76.5,170 L69.5,170 C69.5,156.63104 72.113465,143.620432 77.1266763,131.530565 Z M170,69.5 C196.743941,69.5 221.834032,79.9990961 240.500551,98.3764696 L241.064232,98.9357685 L236.114484,103.885516 C218.864964,86.6359963 195.608916,76.6999814 170.753674,76.502986 L170,76.5 L170,69.5 Z"
            id="circle-5" fill="#3D85F9" fill-rule="nonzero">
            <animateTransform attributeName="transform" attributeType="XML" type="rotate" from="0 170 170"
                to="360 170 170" dur="10s" repeatCount="indefinite" />
        </path>
    </g>
</svg>